<svg xmlns="http://www.w3.org/2000/svg" width="1280" height="900" viewBox="0 0 1280 900"><rect width="1280" height="900" fill="#f5f7fa"/><rect x="0" y="0" width="1280" height="110" fill="#102a4c"/><circle cx="64" cy="55" r="20" fill="#e52b38"/><text x="100" y="52" font-family="Arial" font-size="17" font-weight="700" fill="#fff">ANGELCARE MARKETPLACE</text><text x="100" y="76" font-family="Arial" font-size="11" fill="#b9c7d9">CATEGORY-NATIVE EXPERIENCE ENGINE</text><text x="60" y="165" font-family="Arial" font-size="31" font-weight="700" fill="#102a4c">Arabic Mobile Experience</text><text x="60" y="202" font-family="Arial" font-size="14" fill="#60718a">Structural RTL · logical spacing · native mobile configurator</text><rect x="60" y="250" width="350" height="190" rx="22" fill="#fff" stroke="#dfe6ef"/><text x="84" y="292" font-size="17" font-weight="700" fill="#102a4c">واجهة عربية</text><text x="84" y="328" font-size="12" fill="#60718a">اتجاه صحيح من اليمين</text><rect x="84" y="368" width="150" height="38" rx="19" fill="#102a4c"/><text x="108" y="393" font-size="11" fill="#fff">OPEN EXPERIENCE</text><rect x="450" y="250" width="350" height="190" rx="22" fill="#fff" stroke="#dfe6ef"/><text x="474" y="292" font-size="17" font-weight="700" fill="#102a4c">الإعداد</text><text x="474" y="328" font-size="12" fill="#60718a">حقول خاصة بالخدمة</text><rect x="474" y="368" width="150" height="38" rx="19" fill="#102a4c"/><text x="498" y="393" font-size="11" fill="#fff">OPEN EXPERIENCE</text><rect x="840" y="250" width="350" height="190" rx="22" fill="#fff" stroke="#dfe6ef"/><text x="864" y="292" font-size="17" font-weight="700" fill="#102a4c">التوفر</text><text x="864" y="328" font-size="12" fill="#60718a">مصدر موثوق</text><rect x="864" y="368" width="150" height="38" rx="19" fill="#102a4c"/><text x="888" y="393" font-size="11" fill="#fff">OPEN EXPERIENCE</text><rect x="60" y="480" width="350" height="190" rx="22" fill="#fff" stroke="#dfe6ef"/><text x="84" y="522" font-size="17" font-weight="700" fill="#102a4c">السعر</text><text x="84" y="558" font-size="12" fill="#60718a">إعادة تحقق قبل التأكيد</text><rect x="84" y="598" width="150" height="38" rx="19" fill="#102a4c"/><text x="108" y="623" font-size="11" fill="#fff">OPEN EXPERIENCE</text><rect x="450" y="480" width="350" height="190" rx="22" fill="#fff" stroke="#dfe6ef"/><text x="474" y="522" font-size="17" font-weight="700" fill="#102a4c">الموافقة</text><text x="474" y="558" font-size="12" fill="#60718a">شروط واضحة</text><rect x="474" y="598" width="150" height="38" rx="19" fill="#102a4c"/><text x="498" y="623" font-size="11" fill="#fff">OPEN EXPERIENCE</text><rect x="840" y="480" width="350" height="190" rx="22" fill="#fff" stroke="#dfe6ef"/><text x="864" y="522" font-size="17" font-weight="700" fill="#102a4c">المتابعة</text><text x="864" y="558" font-size="12" fill="#60718a">استمرار داخل Mon ANGELCARE</text><rect x="864" y="598" width="150" height="38" rx="19" fill="#102a4c"/><text x="888" y="623" font-size="11" fill="#fff">OPEN EXPERIENCE</text><text x="60" y="860" font-family="Arial" font-size="11" fill="#7b8798">DESIGN CONCEPT · NOT A RUNTIME SCREENSHOT · 06_MOBILE_ARABIC_RTL</text></svg>