<svg xmlns="http://www.w3.org/2000/svg" width="1600" height="1000" viewBox="0 0 1600 1000" role="img" aria-label="AC Privilege Wallet">
<defs><filter id="shadow" x="-20%" y="-20%" width="140%" height="140%"><feDropShadow dx="0" dy="18" stdDeviation="24" flood-color="#17324D" flood-opacity=".12"/></filter><linearGradient id="hero" x1="0" x2="1"><stop offset="0" stop-color="#071F36"/><stop offset="1" stop-color="#123D5E"/></linearGradient></defs>
<style>.title{font:700 45px Arial;fill:#102C46}.sub{font:400 20px Arial;fill:#627487}.cardTitle{font:700 22px Arial;fill:#16344E}.small{font:400 17px Arial;fill:#617185}.metric{font:700 34px Arial;fill:#102C46}.label{font:700 14px Arial;fill:#8B98A7;letter-spacing:2px}.white{fill:#fff}.red{fill:#D71920}</style>
<rect width="1600" height="1000" fill="#F5F8FB"/><rect x="0" y="0" width="1600" height="86" fill="#FFFFFF"/><path d="M40 60 L61 21 L82 60 Z" fill="#D71920"/><text x="96" y="50" class="cardTitle">ANGELCARE</text><text x="1280" y="50" class="label">MARKETPLACE · PREMIUM UIX</text>
<text x="70" y="150" class="title">AC Privilege Wallet</text><text x="70" y="188" class="sub">Premium membership, transparent buckets and financial control</text><rect x="70" y="240" width="1460" height="230" rx="30" fill="url(#hero)" filter="url(#shadow)"/><text x="120" y="300" class="white label">AVAILABLE BALANCE</text><text x="120" y="375" class="white" style="font:700 66px Arial">8,420 AC</text><text x="120" y="420" class="white small">AC Wallet Signature · 1 Dh = 1 AC credit purchase value</text><rect x="1110" y="290" width="360" height="120" rx="22" fill="#FFFFFF" fill-opacity=".10"/><text x="1150" y="335" class="white small">Lifetime savings</text><text x="1150" y="385" class="white" style="font:700 38px Arial">1,640 Dh</text><rect x="70" y="520" width="330" height="300" rx="22" fill="#FFFFFF" stroke="#DCE3EC"/><rect x="70" y="520" width="7" height="300" rx="3" fill="#163D61"/><text x="98" y="560" class="cardTitle">Purchased credits</text><text x="98" y="590" class="small">6,000 AC available</text><text x="98" y="615" class="small">No promotional expiry</text><text x="98" y="640" class="small">Original funding trace</text><rect x="430" y="520" width="330" height="300" rx="22" fill="#FFFFFF" stroke="#DCE3EC"/><rect x="430" y="520" width="7" height="300" rx="3" fill="#D71920"/><text x="458" y="560" class="cardTitle">Bonus credits</text><text x="458" y="590" class="small">2,420 AC</text><text x="458" y="615" class="small">520 AC expiring soon</text><text x="458" y="640" class="small">Policy and expiry disclosed</text><rect x="790" y="520" width="330" height="300" rx="22" fill="#FFFFFF" stroke="#DCE3EC"/><rect x="790" y="520" width="7" height="300" rx="3" fill="#D71920"/><text x="818" y="560" class="cardTitle">Privileges</text><text x="818" y="590" class="small">Priority booking</text><text x="818" y="615" class="small">Exclusive offers</text><text x="818" y="640" class="small">Fee waiver under policy</text><rect x="1150" y="520" width="380" height="300" rx="22" fill="#FFFFFF" stroke="#DCE3EC"/><rect x="1150" y="520" width="7" height="300" rx="3" fill="#163D61"/><text x="1178" y="560" class="cardTitle">Actions</text><text x="1178" y="590" class="small">Top up securely</text><text x="1178" y="615" class="small">View statement</text><text x="1178" y="640" class="small">Manage auto-top-up</text><text x="1178" y="665" class="small">Review security</text></svg>