<svg xmlns="http://www.w3.org/2000/svg" width="1600" height="1000" viewBox="0 0 1600 1000" role="img" aria-label="Live payment comparison">
<defs><filter id="shadow" x="-20%" y="-20%" width="140%" height="140%"><feDropShadow dx="0" dy="18" stdDeviation="24" flood-color="#17324D" flood-opacity=".12"/></filter><linearGradient id="hero" x1="0" x2="1"><stop offset="0" stop-color="#071F36"/><stop offset="1" stop-color="#123D5E"/></linearGradient></defs>
<style>.title{font:700 45px Arial;fill:#102C46}.sub{font:400 20px Arial;fill:#627487}.cardTitle{font:700 22px Arial;fill:#16344E}.small{font:400 17px Arial;fill:#617185}.metric{font:700 34px Arial;fill:#102C46}.label{font:700 14px Arial;fill:#8B98A7;letter-spacing:2px}.white{fill:#fff}.red{fill:#D71920}</style>
<rect width="1600" height="1000" fill="#F5F8FB"/><rect x="0" y="0" width="1600" height="86" fill="#FFFFFF"/><path d="M40 60 L61 21 L82 60 Z" fill="#D71920"/><text x="96" y="50" class="cardTitle">ANGELCARE</text><text x="1280" y="50" class="label">MARKETPLACE · PREMIUM UIX</text>
<text x="70" y="150" class="title">Live payment comparison</text><text x="70" y="188" class="sub">Truthful normal-vs-Wallet pricing at product, basket and checkout level</text><rect x="70" y="250" width="650" height="600" rx="22" fill="#FFFFFF" stroke="#DCE3EC"/><rect x="70" y="250" width="7" height="600" rx="3" fill="#8292A3"/><text x="98" y="290" class="cardTitle">Standard payment</text><text x="98" y="320" class="small">Base total                         1,000 Dh</text><text x="98" y="345" class="small">Delivery                               50 Dh</text><text x="98" y="370" class="small">Booking fee                         20 Dh</text><text x="98" y="395" class="small">TOTAL                              1,070 Dh</text><rect x="780" y="250" width="750" height="600" rx="30" fill="#FFFFFF" stroke="#D71920" stroke-width="3" filter="url(#shadow)"/><rect x="780" y="250" width="750" height="94" rx="28" fill="#D71920"/><text x="825" y="310" class="white cardTitle">PAY WITH AC PRIVILEGE WALLET</text><text x="830" y="410" class="label">WALLET PRICE</text><text x="830" y="475" class="metric">920 AC credits</text><text x="830" y="535" class="label">IMMEDIATE SAVING</text><text x="830" y="590" class="red" style="font:700 42px Arial">150 Dh</text><text x="830" y="650" class="small">+ Priority booking · delivery offered</text><text x="830" y="700" class="small">Balance after payment: 2,580 AC</text><rect x="830" y="745" width="650" height="64" rx="18" fill="#FCEDEF"/><text x="860" y="785" class="cardTitle">Policy evidence: Family Signature · Summer 2026</text></svg>