<svg xmlns="http://www.w3.org/2000/svg" width="1000" height="800" viewBox="0 0 1000 800" role="img" aria-labelledby="title-5c1151f3">
<title id="title-5c1151f3">Partner OS plan</title>
<defs>
<linearGradient id="bg5c1151f3" x1="0" y1="0" x2="1" y2="1"><stop stop-color="#061a33"/><stop offset=".58" stop-color="#176da1"/><stop offset="1" stop-color="#061a33"/></linearGradient>
<radialGradient id="glow5c1151f3" cx="50%" cy="50%" r="50%"><stop stop-color="#d8f8f1" stop-opacity=".92"/><stop offset="1" stop-color="#51c6b1" stop-opacity=".08"/></radialGradient>
<linearGradient id="glass5c1151f3" x1="0" y1="0" x2="1" y2="1"><stop stop-color="#fff" stop-opacity=".36"/><stop offset="1" stop-color="#fff" stop-opacity=".08"/></linearGradient>
<pattern id="grid5c1151f3" width="42" height="42" patternUnits="userSpaceOnUse"><path d="M42 0H0V42" fill="none" stroke="#fff" stroke-opacity=".045"/></pattern>
<filter id="shadow5c1151f3" x="-30%" y="-30%" width="160%" height="160%"><feDropShadow dx="0" dy="22" stdDeviation="24" flood-color="#000" flood-opacity=".28"/></filter>
</defs>
<rect width="1000" height="800" fill="url(#bg5c1151f3)"/>
<rect width="1000" height="800" fill="url(#grid5c1151f3)"/>
<circle cx="780" cy="200" r="224" fill="url(#glow5c1151f3)" opacity=".62"/>
<circle cx="120" cy="688" r="304" fill="none" stroke="#fff" stroke-opacity=".07" stroke-width="2"/>
<path d="M0 624 C 200 496, 380 752, 580 592 S 860 512, 1000 624 V 800 H0Z" fill="#fff" opacity=".035"/>
<path d="M45 84H180" stroke="#51c6b1" stroke-width="7" stroke-linecap="round"/>
<path d="M45 112H130" stroke="#fff" stroke-opacity=".55" stroke-width="4" stroke-linecap="round"/>
<g filter="url(#shadow5c1151f3)"><rect x="448" y="192" width="544" height="384" rx="36" fill="url(#glass5c1151f3)" stroke="#fff" stroke-opacity=".3"/><rect x="496" y="248" width="128" height="272" rx="16" fill="#fff" opacity=".12"/><rect x="664" y="248" width="272" height="96" rx="16" fill="#fff" opacity=".9"/><rect x="664" y="384" width="120" height="136" rx="16" fill="#d8f8f1" opacity=".9"/><rect x="816" y="384" width="120" height="136" rx="16" fill="#51c6b1" opacity=".75"/></g>
</svg>