<svg xmlns="http://www.w3.org/2000/svg" width="1000" height="760" viewBox="0 0 1000 760" role="img"><defs><linearGradient id="bg5c1151f3" x1="0" y1="0" x2="1" y2="1"><stop stop-color="#071931"/><stop offset="1" stop-color="#186793"/></linearGradient><linearGradient id="accent" x1="0" y1="0" x2="1" y2="1"><stop stop-color="#68d0f2"/><stop offset="1" stop-color="#fff"/></linearGradient><radialGradient id="warm"><stop stop-color="#ffe9d0"/><stop offset="1" stop-color="#f4a95d"/></radialGradient><pattern id="dots5c1151f3" width="34" height="34" patternUnits="userSpaceOnUse"><circle cx="3" cy="3" r="2" fill="#fff" opacity=".09"/></pattern></defs><rect width="1000" height="760" fill="url(#bg5c1151f3)"/><rect width="1000" height="760" fill="url(#dots5c1151f3)"/><circle cx="180" cy="110" r="310" fill="#fff" opacity=".035"/><circle cx="270" cy="640" r="420" fill="none" stroke="#fff" stroke-width="2" opacity=".08"/><path d="M0 585.2C200.0 440.79999999999995 360.0 722.0 570.0 577.6S830.0 471.2 1000 577.6V760H0Z" fill="#fff" opacity=".04"/><rect x="850" y="140" width="570" height="430" rx="34" fill="#fff" opacity=".94"/><rect x="890" y="190" width="490" height="55" rx="14" fill="url(#accent)" opacity=".18"/><rect x="890" y="280" width="145" height="230" rx="18" fill="url(#accent)" opacity=".15"/><rect x="1065" y="280" width="315" height="100" rx="18" fill="url(#accent)" opacity=".12"/><rect x="1065" y="410" width="145" height="100" rx="18" fill="url(#accent)" opacity=".45"/><rect x="1235" y="410" width="145" height="100" rx="18" fill="url(#accent)" opacity=".22"/><circle cx="920" cy="218" r="8" fill="#d93246"/><circle cx="948" cy="218" r="8" fill="#f1b445"/><circle cx="976" cy="218" r="8" fill="#43bd86"/><path d="M70 86h210" stroke="#68d0f2" stroke-width="7" stroke-linecap="round"/><path d="M70 112h128" stroke="#fff" stroke-width="4" stroke-linecap="round" opacity=".6"/></svg>